<svg xmlns="http://www.w3.org/2000/svg" viewBox="0 0 512 512" style="enable-background:new 0 0 512 512" xml:space="preserve"><path style="fill:#eff2fa" d="M172.8 441.4c-4.5 0-10.8-2.6-14-5.8L41.1 317.9a22.7 22.7 0 0 1-5.8-14V137.5c0-4.5 2.6-10.8 5.8-14L158.8 5.8c3.2-3.2 9.5-5.8 14-5.8h166.4c4.5 0 10.8 2.6 14 5.8l117.7 117.7c3.2 3.2 5.8 9.5 5.8 14v166.4c0 4.5-2.6 10.8-5.8 14L353.2 435.6a22.7 22.7 0 0 1-14 5.8H172.8z"/><circle style="fill:#d7deed" cx="256" cy="220.7" r="35.3"/><path style="fill:#d7deed" d="M338.9 17.7c.6 0 1.6.5 2 .8l117.3 117.2c.3.5.7 1.5.8 2.1v165.8c0 .6-.5 1.5-.8 2L341 423c-.5.3-1.5.7-2.1.8H173c-.6-.1-1.6-.5-2-.8L53.7 305.6c-.3-.5-.7-1.4-.8-2V137.8c0-.6.5-1.6.8-2L171 18.4c.5-.3 1.5-.7 2.1-.8H339m.3-17.7H172.8c-4.5 0-10.8 2.6-14 5.8L41.1 123.5a22.7 22.7 0 0 0-5.8 14v166.4c0 4.5 2.6 10.8 5.8 14l117.7 117.7c3.2 3.2 9.5 5.8 14 5.8h166.4c4.5 0 10.8-2.6 14-5.8l117.7-117.7c3.2-3.2 5.8-9.5 5.8-14V137.5c0-4.5-2.6-10.8-5.8-14L353.2 5.8a22.7 22.7 0 0 0-14-5.8z"/><circle style="fill:#ffd782" cx="317.8" cy="97.1" r="26.5"/><path style="fill:#ffc36e" d="M335.4 114.8a26.5 26.5 0 0 1-19.7-44 26.4 26.4 0 1 0 21.9 43.7c-.7.1-1.4.3-2.2.3z"/><circle style="fill:#ffd782" cx="211.9" cy="79.4" r="26.5"/><path style="fill:#ffc36e" d="M229.5 97.1a26.5 26.5 0 0 1-19.8-44 26.4 26.4 0 1 0 22 43.8l-2.2.2z"/><circle style="fill:#ffd782" cx="388.4" cy="185.4" r="26.5"/><path style="fill:#ffc36e" d="M406 203a26.5 26.5 0 0 1-19.7-43.9 26.4 26.4 0 1 0 21.9 43.7l-2.1.2z"/><circle style="fill:#ffd782" cx="97.1" cy="264.8" r="26.5"/><path style="fill:#ffc36e" d="M114.8 282.5a26.5 26.5 0 0 1-19.8-44 26.4 26.4 0 1 0 21.9 43.8l-2.1.2z"/><circle style="fill:#ffd782" cx="123.6" cy="326.6" r="26.5"/><path style="fill:#ffc36e" d="M141.2 344.3a26.5 26.5 0 0 1-19.7-44 26.4 26.4 0 1 0 21.9 43.8l-2.2.2z"/><circle style="fill:#ffd782" cx="150.1" cy="220.7" r="26.5"/><path style="fill:#ffc36e" d="M167.7 238.3a26.5 26.5 0 0 1-19.8-43.9 26.4 26.4 0 1 0 22 43.7l-2.2.2z"/><circle style="fill:#ffd782" cx="185.4" cy="150.1" r="26.5"/><path style="fill:#ffc36e" d="M203 167.7a26.5 26.5 0 0 1-19.8-43.9 26.4 26.4 0 1 0 22 43.7l-2.2.2z"/><circle style="fill:#ffd782" cx="176.6" cy="300.1" r="26.5"/><path style="fill:#ffc36e" d="M194.2 317.8a26.5 26.5 0 0 1-19.8-44 26.4 26.4 0 1 0 22 43.8l-2.2.2z"/><circle style="fill:#ffd782" cx="238.3" cy="326.6" r="26.5"/><path style="fill:#ffc36e" d="M256 344.3a26.5 26.5 0 0 1-19.8-44 26.4 26.4 0 1 0 22 43.8l-2.2.2z"/><circle style="fill:#ffd782" cx="300.1" cy="361.9" r="26.5"/><path style="fill:#ffc36e" d="M317.8 379.6a26.5 26.5 0 0 1-19.8-44 26.4 26.4 0 1 0 22 43.8l-2.2.2z"/><circle style="fill:#ffd782" cx="176.6" cy="370.8" r="26.5"/><path style="fill:#ffc36e" d="M194.2 388.4a26.5 26.5 0 0 1-19.8-44 26.4 26.4 0 1 0 22 43.8l-2.2.2z"/><circle style="fill:#ffd782" cx="229.5" cy="388.4" r="26.5"/><path style="fill:#ffc36e" d="M247.2 406a26.5 26.5 0 0 1-19.8-43.9 26.4 26.4 0 1 0 21.9 43.8l-2.1.2z"/><circle style="fill:#ffd782" cx="282.5" cy="397.2" r="26.5"/><path style="fill:#ffc36e" d="M300.1 414.9a26.5 26.5 0 0 1-19.8-44 26.4 26.4 0 1 0 22 43.8l-2.2.2z"/><circle style="fill:#ffd782" cx="326.6" cy="388.4" r="26.5"/><path style="fill:#ffc36e" d="M344.3 406a26.5 26.5 0 0 1-19.8-43.9 26.4 26.4 0 1 0 22 43.8l-2.2.2z"/><circle style="fill:#ffd782" cx="97.1" cy="176.6" r="26.5"/><path style="fill:#ffc36e" d="M114.8 194.2a26.5 26.5 0 0 1-19.8-44 26.4 26.4 0 1 0 21.9 43.8l-2.1.2z"/><path style="fill:#959cb3" d="M405.1 499.2 264 216.7l-.1-.2a7.7 7.7 0 0 0-1.3-1.8 10.7 10.7 0 0 0-.6-.6l-.3-.2a8.6 8.6 0 0 0-1.4-1l-.3-.1-.2-.1-.3-.1-.5-.2-.3-.1a8 8 0 0 0-.5-.2h-.3l-.6-.1h-.3l-.5-.1h-1.6a8 8 0 0 0-.6.2h-.3l-.5.2h-.3a9.2 9.2 0 0 0-.8.4h-.2l-.3.2-.3.2a8.6 8.6 0 0 0-3.3 3.4l-.1.2-141.2 282.5a8.8 8.8 0 1 0 15.8 8L256 240.3l133.3 266.7a8.8 8.8 0 0 0 15.8-7.9z"/><path style="fill:#afb9d2" d="M132.4 512H85.6a6.2 6.2 0 0 1-5.8-8.1l2-6.3c2.5-7.2 9.2-12 16.8-12h33.8c4.9 0 8.8 3.9 8.8 8.7v8.9c0 4.8-4 8.8-8.8 8.8zM379.6 512h46.8c4.2 0 7.2-4.1 5.8-8.1l-2-6.3c-2.5-7.2-9.2-12-16.8-12h-33.8c-4.9 0-8.8 3.9-8.8 8.7v8.9c0 4.8 4 8.8 8.8 8.8z"/><circle style="fill:#afb9d2" cx="256" cy="220.7" r="17.7"/></svg>