<?xml version="1.0" standalone="no"?>
<!DOCTYPE svg PUBLIC "-//W3C//DTD SVG 20010904//EN"
 "http://www.w3.org/TR/2001/REC-SVG-20010904/DTD/svg10.dtd">
<svg version="1.0" xmlns="http://www.w3.org/2000/svg"
 width="700.000000pt" height="700.000000pt" viewBox="0 0 700.000000 700.000000"
 preserveAspectRatio="xMidYMid meet">
<metadata>
Created by potrace 1.14, written by Peter Selinger 2001-2017
</metadata>
<g transform="translate(0.000000,700.000000) scale(0.100000,-0.100000)"
fill="#000000" stroke="none">
<path d="M2277 6986 c-21 -8 -55 -26 -75 -40 -20 -14 -404 -394 -853 -843
-645 -647 -821 -828 -840 -868 l-24 -50 0 -1195 c0 -1144 1 -1197 19 -1245 16
-44 102 -134 751 -785 l733 -735 -66 -133 c-37 -72 -134 -267 -217 -432 l-149
-300 -128 0 c-70 0 -130 0 -133 0 -11 1 -71 -34 -104 -59 -41 -31 -90 -131
-98 -200 -4 -37 -1 -51 15 -71 l20 -25 344 -3 c238 -2 354 0 378 8 59 20 74
51 79 160 4 110 -9 145 -65 177 l-35 20 106 214 c58 118 111 223 117 234 6 11
34 65 61 120 27 55 50 102 52 104 2 2 16 -6 32 -16 15 -11 46 -28 68 -39 39
-18 76 -19 1215 -20 646 0 1193 3 1215 8 22 5 62 22 88 38 27 17 50 30 51 30
4 0 336 -665 336 -673 0 -3 -15 -13 -34 -22 -20 -10 -41 -30 -50 -50 -22 -45
-22 -185 0 -230 30 -63 43 -65 421 -65 367 0 377 2 399 55 22 55 -37 198 -103
252 -54 43 -104 54 -241 54 l-117 -1 -213 428 c-117 235 -212 432 -212 437 0
6 324 334 721 730 597 597 724 729 747 775 l27 55 0 1200 0 1200 -24 50 c-19
40 -195 221 -860 886 -795 796 -839 837 -894 858 l-58 21 -1182 0 c-969 -1
-1189 -3 -1220 -14z"/>
</g>
</svg>
